
<?xml version="1.0" encoding="utf-8"?>
<!-- Generator: Adobe Illustrator 24.0.1, SVG Export Plug-In . SVG Version: 6.00 Build 0)  -->
<svg version="1.1" id="Layer_1" xmlns="http://www.w3.org/2000/svg" xmlns:xlink="http://www.w3.org/1999/xlink" x="0px" y="0px"
	 viewBox="0 0 95.7 95.7" style="enable-background:new 0 0 95.7 95.7;" xml:space="preserve">
<style type="text/css">
	.st0{fill:#5B626C;}
	.st1{fill:#1D2024;}
</style>
<circle class="st0" cx="47.9" cy="47.9" r="47.9"/>
<g>
	<g>
		<g>
			<path class="st1" d="M55.9,39.4c0,1.6-0.4,3.1-1.2,4.4c-0.8,1.3-2,2.3-3.4,3c1.6,0.8,2.9,1.9,3.9,3.3c1,1.4,1.4,3,1.4,4.9
				c0,3-1,5.4-3.1,7.1c-2,1.7-4.8,2.6-8.4,2.6c-3.5,0-6.3-0.9-8.4-2.6c-2.1-1.8-3.1-4.1-3.1-7.1c0-1.9,0.5-3.5,1.4-4.9
				c1-1.4,2.3-2.5,3.9-3.3c-1.4-0.8-2.6-1.8-3.4-3s-1.2-2.7-1.2-4.4c0-2.9,1-5.2,2.9-6.9c1.9-1.7,4.5-2.6,7.8-2.6
				c3.3,0,5.9,0.8,7.8,2.5C55,34.1,55.9,36.4,55.9,39.4z M49.9,54.5c0-1.5-0.4-2.7-1.3-3.5c-0.9-0.9-2-1.3-3.4-1.3
				c-1.4,0-2.6,0.4-3.4,1.3c-0.9,0.9-1.3,2.1-1.3,3.6c0,1.4,0.4,2.6,1.3,3.5c0.8,0.9,2,1.3,3.5,1.3c1.5,0,2.6-0.4,3.4-1.3
				S49.9,56,49.9,54.5z M49.2,39.7c0-1.3-0.3-2.4-1-3.2c-0.7-0.8-1.7-1.2-3-1.2c-1.3,0-2.2,0.4-2.9,1.2c-0.7,0.8-1,1.8-1,3.2
				c0,1.3,0.3,2.4,1,3.3c0.7,0.8,1.7,1.2,3,1.2c1.3,0,2.3-0.4,2.9-1.2C48.9,42.1,49.2,41,49.2,39.7z"/>
			<path class="st1" d="M73.1,45.3h8.4v6.1h-8.4v9.5h-6.4v-9.5h-8.4v-6.1h8.4v-9.1h6.4V45.3z"/>
		</g>
	</g>
	<g>
		<path class="st1" d="M26.5,64.2h-6.7V38.3l-8,2.5v-5.5l14-5h0.7V64.2z"/>
	</g>
</g>
</svg>
